<mxfile host="65bd71144e">
    <diagram name="Framework-Integrated LLM Training Pipeline" id="framework-llm-training">
        <mxGraphModel dx="1800" dy="836" grid="1" gridSize="10" guides="1" tooltips="1" connect="1" arrows="1" fold="1" page="1" pageScale="1" pageWidth="1400" pageHeight="1000" math="0" shadow="0">
            <root>
                <mxCell id="0"/>
                <mxCell id="1" parent="0"/>
                <object label="Framework-Integrated LLM Training Pipeline" tooltip="Complete pipeline for fine-tuning LLMs to produce stereotyped TypeScript code with OOP awareness from Delphi/Java/Qt patterns, using DFrame/ONCE framework and PDCA methodology." id="title">
                    <mxCell style="rounded=1;whiteSpace=wrap;html=1;fontSize=18;fontStyle=1;fillColor=#dae8fc;strokeColor=#6c8ebf;verticalAlign=top;spacingTop=10;spacingBottom=10;" parent="1" vertex="1">
                        <mxGeometry x="40" y="20" width="1320" height="60" as="geometry"/>
                    </mxCell>
                </object>
                <object label="Model Layer" tooltip="The Model Layer represents our dual-model architecture strategy for framework-integrated LLM training. This approach combines the speed and efficiency of a 7B model for daily IDE integration with the depth and reasoning capabilities of a 13B model for complex architecture validation. The 7B model (StarCoder2) serves as the primary workhorse for real-time code generation, refactoring, and pattern application in development environments like Cursor/VSCode. It provides fast iteration cycles and immediate feedback for developers. The 13B model (Code Llama) acts as the secondary architecture specialist, handling complex design decisions, deep refactoring tasks, and comprehensive code reviews that require sophisticated reasoning about system architecture, design patterns, and long-term maintainability. This dual-model approach ensures we have both speed where we work (IDE integration) and depth where it matters (server-side architecture validation), without training on Java/C++/Delphi directly, yet retaining their OOP influence through pretraining priors from The Stack v2 and Meta&#39;s code corpora." id="model-layer-title">
                    <mxCell style="rounded=1;whiteSpace=wrap;html=1;fontSize=16;fontStyle=1;fillColor=#e1d5e7;strokeColor=#9673a6;verticalAlign=top;spacingTop=10;" parent="1" vertex="1">
                        <mxGeometry x="40" y="100" width="600" height="40" as="geometry"/>
                    </mxCell>
                </object>
                <object label="StarCoder2-7B (QLoRA)&amp;#xa;Primary: IDE Integration&amp;#xa;&amp;#xa;• 16k context (sliding 4k)&amp;#xa;• FIM capabilities&amp;#xa;• The Stack v2 priors&amp;#xa;• Fast iteration&amp;#xa;• Multi-language OOP awareness" tooltip="StarCoder2-7B serves as our primary model for daily coding and IDE integration, optimized for real-time development workflows. This model is trained on The Stack v2 dataset containing 3.5T+ tokens across 600+ programming languages, providing exceptional cross-language OOP pattern recognition capabilities. The 16k context window with sliding 4k attention enables handling of large codebases and complex refactoring tasks. Fill-in-the-Middle (FIM) capabilities allow seamless code completion and infill operations, making it ideal for IDE integration. QLoRA (Quantized Low-Rank Adaptation) fine-tuning enables efficient training on consumer hardware while maintaining model performance. The model excels at recognizing OOP patterns from Delphi (VCL/FMX), Java (Spring/Enterprise), and Qt (C++/QML) and applying them in TypeScript code generation. It provides fast iteration cycles for developers, immediate feedback on code patterns, and real-time assistance with framework-specific implementations. The model&#39;s multi-language pretraining ensures it understands architectural patterns from various OOP languages, allowing it to generate TypeScript code that follows established design principles and patterns from these ecosystems." id="starcoder2">
                    <mxCell style="rounded=1;whiteSpace=wrap;html=1;fontSize=12;fillColor=#d5e8d4;strokeColor=#82b366;verticalAlign=top;spacingTop=5;" parent="1" vertex="1">
                        <mxGeometry x="60" y="160" width="250" height="140" as="geometry"/>
                    </mxCell>
                </object>
                <object label="Code Llama-13B (LoRA)&amp;#xa;Secondary: Architecture Validation&amp;#xa;&amp;#xa;• Robust instruction variants&amp;#xa;• Strong refactoring output&amp;#xa;• Meta ecosystem&amp;#xa;• Deep reasoning&amp;#xa;• Architecture planning" tooltip="Code Llama-13B serves as our secondary model for deep architecture validation and complex refactoring tasks, providing superior reasoning capabilities for sophisticated design decisions. This model is part of Meta&#39;s widely adopted 13B code base/instruct family, offering robust stability and extensive ecosystem support. The model excels at complex architectural reasoning, handling intricate design patterns, and providing comprehensive code reviews that require deep understanding of system architecture and long-term maintainability. LoRA (Low-Rank Adaptation) fine-tuning enables efficient training while preserving the model&#39;s sophisticated reasoning capabilities. The model&#39;s robust instruction variants make it ideal for complex refactoring tasks, architecture planning, and comprehensive code analysis. It provides stronger reasoning capabilities for understanding complex design patterns, inheritance hierarchies, and architectural decisions that require sophisticated analysis. The Meta ecosystem provides extensive tooling, community support, and proven stability for production use. This model handles tasks that require deeper architectural thinking, such as large-scale refactoring, complex design pattern implementation, comprehensive code reviews, and architectural decision-making that goes beyond simple code generation. It pairs perfectly with the 7B model, providing validation and deeper analysis for designs created by the primary model." id="codellama">
                    <mxCell style="rounded=1;whiteSpace=wrap;html=1;fontSize=12;fillColor=#d5e8d4;strokeColor=#82b366;verticalAlign=top;spacingTop=5;" parent="1" vertex="1">
                        <mxGeometry x="330" y="160" width="250" height="140" as="geometry"/>
                    </mxCell>
                </object>
                <object label="Stackable Adapter Layer" tooltip="The Stackable Adapter Layer represents the core innovation of our framework-integrated LLM training approach, consisting of specialized LoRA/QLoRA adapters that enforce specific framework patterns and methodology compliance. This layer acts as the critical interface between our base models (StarCoder2-7B and Code Llama-13B) and the production of stereotyped TypeScript code. Each adapter is trained on specific aspects of our framework ecosystem, allowing for modular, stackable, and maintainable pattern enforcement. The adapters receive training data from our 30% framework data threshold, transformed public datasets, and quality assurance processes, ensuring they learn to recognize and apply our specific patterns consistently. The stackable nature means that multiple adapters can be combined and used together, with each adapter contributing its specialized knowledge to the final code generation process. This approach enables fine-grained control over different aspects of code generation - from OOP pattern recognition to framework-specific conventions, from PDCA methodology integration to TypeScript best practices. The adapters are designed to work in concert, with each one handling specific responsibilities while maintaining overall coherence and consistency. This modular approach allows for independent training, testing, and deployment of different pattern enforcement mechanisms, making the system more maintainable and allowing for targeted improvements to specific aspects of framework compliance." id="adapter-layer-title">
                    <mxCell style="rounded=1;whiteSpace=wrap;html=1;fontSize=16;fontStyle=1;fillColor=#fff2cc;strokeColor=#d6b656;verticalAlign=top;spacingTop=10;" parent="1" vertex="1">
                        <mxGeometry x="40" y="380" width="600" height="40" as="geometry"/>
                    </mxCell>
                </object>
                <object label="OOP-Core&amp;#xa;Cross-language patterns&amp;#xa;&amp;#xa;• Delphi VCL/FMX&amp;#xa;• Java Spring/Enterprise&amp;#xa;• Qt C++/QML&amp;#xa;• Pattern recognition" tooltip="The OOP-Core adapter is the foundation of our cross-language object-oriented programming pattern recognition and application system. This specialized adapter is trained to recognize, understand, and translate OOP patterns from multiple programming languages into TypeScript while maintaining the original design intent and architectural principles. The adapter excels at identifying Delphi VCL/FMX patterns including component hierarchies, event handling mechanisms, property systems, and visual component frameworks, translating these into TypeScript equivalents that preserve the original architectural decisions. Java Spring/Enterprise patterns are recognized and adapted, including dependency injection frameworks, service layer architectures, repository patterns, aspect-oriented programming concepts, and enterprise integration patterns, ensuring that complex Java architectural decisions are properly translated to TypeScript. Qt C++/QML patterns are understood and converted, including signal-slot mechanisms, property binding systems, model-view architectures, and cross-platform UI frameworks, maintaining the original Qt design philosophy in TypeScript implementations. The pattern recognition capabilities include inheritance hierarchies, composition relationships, polymorphism implementations, encapsulation patterns, abstraction layers, and design pattern applications (Factory, Strategy, Observer, Command, etc.). This adapter ensures that the rich OOP heritage from these established ecosystems is preserved and properly adapted to TypeScript, creating code that maintains the architectural wisdom and design patterns from decades of OOP development while being fully compatible with our framework ecosystem." id="oop-core">
                    <mxCell style="rounded=1;whiteSpace=wrap;html=1;fontSize=11;fillColor=#ffe6cc;strokeColor=#d79b00;verticalAlign=top;spacingTop=5;" parent="1" vertex="1">
                        <mxGeometry x="60" y="440" width="120" height="110" as="geometry"/>
                    </mxCell>
                </object>
                <object label="DFrame/ONCE&amp;#xa;Framework patterns&amp;#xa;&amp;#xa;• Component lifecycle&amp;#xa;• Service patterns&amp;#xa;• API conventions&amp;#xa;• Architecture rules" tooltip="The DFrame/ONCE adapter is the core framework pattern enforcement system that ensures all generated code follows our specific architectural patterns and conventions. This specialized adapter is trained on our internal framework implementations to recognize and enforce DFrame component-based architecture patterns, including strict separation of concerns, dependency injection mechanisms, and standardized lifecycle management. The adapter enforces DFrame component patterns such as component registration, lifecycle hooks (onInit, onDestroy, onUpdate), property binding systems, event handling mechanisms, and component composition patterns. ONCE service patterns are enforced through single-responsibility principle validation, immutable data pattern recognition, consistent API design across all modules, service registration and discovery mechanisms, and service-to-service communication patterns. The adapter ensures API conventions are followed, including consistent naming patterns, parameter validation, return type specifications, error handling protocols, and API versioning strategies. Architecture rules enforcement includes dependency direction validation, circular dependency prevention, layer separation enforcement, interface segregation compliance, and architectural pattern validation (MVC, MVP, MVVM, etc.). The adapter also enforces framework-specific constraints such as performance requirements, security patterns, scalability considerations, maintainability standards, and testing integration requirements. This adapter acts as the guardian of our framework&#39;s architectural integrity, ensuring that all generated code maintains the high standards and consistent patterns that define our development methodology and framework ecosystem." id="dframe-once">
                    <mxCell style="rounded=1;whiteSpace=wrap;html=1;fontSize=11;fillColor=#ffe6cc;strokeColor=#d79b00;verticalAlign=top;spacingTop=5;" parent="1" vertex="1">
                        <mxGeometry x="200" y="440" width="120" height="110" as="geometry"/>
                    </mxCell>
                </object>
                <object label="PDCA&amp;#xa;Methodology cycles&amp;#xa;&amp;#xa;• Plan phases&amp;#xa;• Do implementation&amp;#xa;• Check validation&amp;#xa;• Act improvement" tooltip="The PDCA adapter is the methodology integration system that embeds Plan-Do-Check-Act cycles directly into the code structure and development process. This specialized adapter ensures that all generated code follows our PDCA methodology, creating a systematic approach to development that emphasizes planning, implementation, validation, and continuous improvement. The Plan phases are embedded through comprehensive requirement analysis, architectural planning, design pattern selection, resource allocation planning, and risk assessment integration. The adapter generates code that includes explicit planning documentation, architectural decision records, design rationale explanations, and implementation roadmaps. Do implementation phases are enforced through systematic code generation that follows the planned architecture, implements the selected design patterns, adheres to the established conventions, and maintains consistency with the planned approach. The adapter ensures that implementation follows the planned structure, includes proper error handling, maintains performance requirements, and integrates with existing systems as planned. Check validation phases are integrated through comprehensive testing generation, code quality validation, performance monitoring integration, security assessment inclusion, and compliance verification. The adapter generates code that includes built-in validation mechanisms, testing frameworks, quality metrics collection, and continuous monitoring capabilities. Act improvement phases are embedded through feedback loop integration, performance optimization opportunities, code refactoring suggestions, architectural evolution support, and continuous learning mechanisms. This adapter ensures that all generated code supports the PDCA methodology, creating a development environment that naturally promotes systematic thinking, continuous improvement, and quality assurance throughout the entire development lifecycle." id="pdca">
                    <mxCell style="rounded=1;whiteSpace=wrap;html=1;fontSize=11;fillColor=#ffe6cc;strokeColor=#d79b00;verticalAlign=top;spacingTop=5;" parent="1" vertex="1">
                        <mxGeometry x="340" y="440" width="120" height="110" as="geometry"/>
                    </mxCell>
                </object>
                <object label="TS-Methodology&amp;#xa;Convention enforcement&amp;#xa;&amp;#xa;• Naming conventions&amp;#xa;• Code structure&amp;#xa;• Error handling&amp;#xa;• Documentation" tooltip="The TS-Methodology adapter is the TypeScript convention enforcement system that ensures all generated code follows our specific TypeScript methodology, coding standards, and best practices. This specialized adapter is trained on our TypeScript coding conventions and industry best practices to enforce consistent, maintainable, and high-quality TypeScript code generation. Naming conventions are strictly enforced through consistent variable naming patterns, function naming standards, class naming conventions, interface naming rules, type alias naming patterns, and constant naming standards. The adapter ensures that all identifiers follow our established naming patterns, including camelCase for variables and functions, PascalCase for classes and interfaces, UPPER_SNAKE_CASE for constants, and descriptive naming that clearly indicates purpose and scope. Code structure enforcement includes consistent file organization, module structure patterns, import/export conventions, class organization standards, method ordering rules, and code formatting requirements. The adapter generates code that follows our established structural patterns, including proper module boundaries, clear separation of concerns, logical code organization, and consistent formatting throughout. Error handling enforcement includes comprehensive error handling patterns, exception management strategies, error logging mechanisms, graceful degradation approaches, and error recovery procedures. The adapter ensures that all generated code includes proper error handling, follows our error management patterns, includes appropriate logging, and implements graceful error recovery mechanisms. Documentation enforcement includes comprehensive code documentation, API documentation generation, inline comment standards, JSDoc compliance, README generation, and architectural documentation integration. This adapter ensures that all generated code is thoroughly documented, follows our documentation standards, includes comprehensive API documentation, and maintains high documentation quality throughout the codebase, creating maintainable and well-documented TypeScript applications." id="ts-methodology">
                    <mxCell style="rounded=1;whiteSpace=wrap;html=1;fontSize=11;fillColor=#ffe6cc;strokeColor=#d79b00;verticalAlign=top;spacingTop=5;" parent="1" vertex="1">
                        <mxGeometry x="480" y="440" width="120" height="110" as="geometry"/>
                    </mxCell>
                </object>
                <object label="Training Data Strategy (30% Framework Threshold)" tooltip="The Training Data Strategy is the critical foundation that determines the success of our framework-integrated LLM training. Based on extensive research findings, we must ensure that 30% or more of our training data follows specific framework patterns for the model to reliably exhibit those patterns. Below this threshold, models show mostly generic behavior rather than framework-specific patterns. Our strategy combines internal framework data (30%) with transformed public datasets (70%) to create a comprehensive training corpus. The internal framework data includes DFrame implementations, ONCE services, PDCA methodology examples, internal repositories, and coding standards that define our specific patterns and conventions. The transformed public data consists of The Stack v2, GitHub TypeScript repositories, documentation, and cross-language examples that have been rewritten to use our framework patterns and methodologies. This approach ensures that our models learn not just generic TypeScript patterns, but our specific architectural decisions, coding conventions, and methodological approaches. The 30% framework threshold is crucial because it provides sufficient pattern density for the model to internalize our specific approaches while still benefiting from the diversity and scale of public datasets. Quality assurance processes ensure pattern consistency, methodology alignment, constraint enforcement, and cross-language OOP integration throughout the training data preparation phase." id="data-strategy-title">
                    <mxCell style="rounded=1;whiteSpace=wrap;html=1;fontSize=16;fontStyle=1;fillColor=#dae8fc;strokeColor=#6c8ebf;verticalAlign=top;spacingTop=10;" parent="1" vertex="1">
                        <mxGeometry x="680" y="100" width="680" height="40" as="geometry"/>
                    </mxCell>
                </object>
                <object label="Framework Data (30%)&amp;#xa;42B tokens (60 GB)&amp;#xa;&amp;#xa;• DFrame implementations&amp;#xa;• ONCE services&amp;#xa;• PDCA examples&amp;#xa;• Internal repositories&amp;#xa;• Coding standards" tooltip="Framework Data represents the crown jewels of our training dataset, comprising 30% of the total training data (42B tokens, 60 GB) to ensure reliable framework behavior. This internal data is the most critical component because it defines our specific patterns, conventions, and methodologies that distinguish our approach from generic TypeScript development. DFrame implementations provide the core component-based architecture patterns, dependency injection mechanisms, and standardized lifecycle management that form the foundation of our framework. ONCE services demonstrate single-responsibility principle enforcement, immutable data patterns, and consistent API design across all modules. PDCA examples showcase our Plan-Do-Check-Act methodology cycles embedded in code structure, with explicit planning phases, implementation tracking, validation checkpoints, and continuous improvement loops. Internal repositories contain real-world applications of our framework, showing how patterns are applied in practice, including edge cases, complex scenarios, and advanced usage patterns. Coding standards include our TypeScript strict mode configurations, comprehensive error handling patterns, consistent naming conventions, and architectural pattern enforcement rules. This data is tagged for oversampling during training to ensure our patterns are well-represented in the final model. The 30% threshold is based on research showing that below this level, models exhibit mostly generic behavior rather than framework-specific patterns." id="framework-data">
                    <mxCell style="rounded=1;whiteSpace=wrap;html=1;fontSize=11;fillColor=#f8cecc;strokeColor=#b85450;verticalAlign=top;spacingTop=5;" parent="1" vertex="1">
                        <mxGeometry x="700" y="160" width="200" height="120" as="geometry"/>
                    </mxCell>
                </object>
                <object label="Transformed Public Data (70%)&amp;#xa;98B tokens (140 GB)&amp;#xa;&amp;#xa;• The Stack v2 (rewritten)&amp;#xa;• GitHub TypeScript repos&amp;#xa;• Documentation&amp;#xa;• Cross-language examples&amp;#xa;• Framework patterns applied" tooltip="Transformed Public Data comprises 70% of our training dataset (98B tokens, 140 GB) and represents public datasets that have been systematically rewritten to use our framework patterns and methodologies. This transformation process is crucial for achieving the scale and diversity needed for effective model training while maintaining framework consistency. The Stack v2 provides the foundation with its massive collection of high-quality code from 600+ programming languages, but we rewrite the TypeScript portions to use DFrame components, ONCE services, and PDCA methodology instead of generic patterns. GitHub TypeScript repositories are systematically transformed to replace standard patterns with our framework-specific implementations, ensuring consistent architectural decisions and coding conventions. Documentation is rewritten to reflect our specific API usage, architectural patterns, and methodological approaches. Cross-language examples demonstrate how OOP patterns from Delphi (VCL/FMX), Java (Spring/Enterprise), and Qt (C++/QML) are translated into TypeScript using our framework patterns. The transformation process includes pattern replacement (e.g., React.useState() becomes DFrame.useState()), API standardization (generic API calls become ONCE.apiClient.get()), error handling alignment (standard patterns become our error boundary patterns), and type system integration (generic TypeScript types become our domain-specific types). This approach provides the scale and diversity of public datasets while ensuring all examples follow our specific patterns and methodologies." id="public-data">
                    <mxCell style="rounded=1;whiteSpace=wrap;html=1;fontSize=11;fillColor=#e1d5e7;strokeColor=#9673a6;verticalAlign=top;spacingTop=5;" parent="1" vertex="1">
                        <mxGeometry x="920" y="160" width="200" height="120" as="geometry"/>
                    </mxCell>
                </object>
                <object label="Quality Assurance&amp;#xa;&amp;#xa;• Pattern consistency&amp;#xa;• Methodology alignment&amp;#xa;• Constraint enforcement&amp;#xa;• Cross-language OOP&amp;#xa;• Framework validation" tooltip="Quality Assurance represents the comprehensive validation and quality control processes that ensure our training data meets the highest framework standards before being used for model training. This critical component implements multi-layered quality checks to maintain consistency, alignment, and compliance throughout the data preparation pipeline. Pattern consistency validation ensures that all training examples demonstrate consistent framework usage, with standardized DFrame component patterns, ONCE service implementations, and PDCA methodology cycles. Methodology alignment verification confirms that all code follows our architectural principles, coding conventions, and design patterns without deviation. Constraint enforcement validation ensures that all examples respect our framework boundaries, security requirements, performance standards, and maintainability rules. Cross-language OOP validation verifies that OOP patterns from Delphi, Java, and Qt are correctly translated to TypeScript using our framework patterns, maintaining the original design intent while adapting to our specific implementation approach. Framework validation includes comprehensive testing of generated code against our framework rules, API compatibility checks, architectural pattern compliance, and integration testing with our existing framework components. The quality assurance process includes automated validation tools, manual review checkpoints, statistical analysis of pattern distribution, and continuous monitoring of data quality metrics. This rigorous quality control ensures that our training data maintains the highest standards of consistency, accuracy, and framework compliance, directly impacting the quality and reliability of our final trained models." id="quality-assurance">
                    <mxCell style="rounded=1;whiteSpace=wrap;html=1;fontSize=11;fillColor=#d5e8d4;strokeColor=#82b366;verticalAlign=top;spacingTop=5;" parent="1" vertex="1">
                        <mxGeometry x="1140" y="160" width="200" height="120" as="geometry"/>
                    </mxCell>
                </object>
                <object label="Stereotyped TypeScript Output" tooltip="Stereotyped TypeScript Output represents the final, unified result of our framework-integrated LLM training pipeline, where all four specialized adapters (OOP-Core, DFrame/ONCE, PDCA, and TS-Methodology) converge to produce consistent, predictable, and framework-compliant TypeScript code. This output is characterized by its stereotyped nature - every piece of generated code follows the same structural patterns, naming conventions, architectural principles, and framework-specific implementations, regardless of the input complexity or context. The output combines OOP-first design decisions with strict TypeScript methodology, ensuring that all generated code demonstrates proper inheritance hierarchies, composition relationships, design pattern applications, and framework-specific patterns like DFrame component lifecycle management, ONCE service integration, and PDCA methodology embedding. This stereotyped approach ensures that developers can immediately recognize and understand any generated code, reducing cognitive load and enabling rapid development cycles while maintaining architectural consistency across the entire codebase." id="output-layer-title">
                    <mxCell style="rounded=1;whiteSpace=wrap;html=1;fontSize=16;fontStyle=1;fillColor=#d5e8d4;strokeColor=#82b366;verticalAlign=top;spacingTop=10;" parent="1" vertex="1">
                        <mxGeometry x="40" y="630" width="600" height="40" as="geometry"/>
                    </mxCell>
                </object>
                <object label="UML→TypeScript&amp;#xa;Interfaces, Services, Repos&amp;#xa;&amp;#xa;• Class hierarchies&amp;#xa;• Interface definitions&amp;#xa;• Service patterns&amp;#xa;• Repository structure" tooltip="UML→TypeScript conversion represents the model&apos;s ability to transform high-level architectural designs and UML diagrams into concrete, framework-compliant TypeScript implementations. This capability demonstrates the model&apos;s understanding of how to translate abstract design concepts into executable code while maintaining architectural integrity and framework compliance. The conversion process includes generating proper class hierarchies that reflect inheritance relationships, composition patterns, and design pattern implementations from UML class diagrams. Interface definitions are created following our framework conventions, with proper TypeScript interface syntax, generic type parameters, and framework-specific annotations. Service patterns are implemented using ONCE service architecture, including proper dependency injection, lifecycle management, and service-to-service communication patterns. Repository structures follow DFrame repository patterns, with proper data access abstractions, query methods, and framework-specific data handling. The model demonstrates sophisticated understanding of how to map UML relationships (association, aggregation, composition, inheritance) to TypeScript code structures, ensuring that the generated code accurately reflects the original design intent while incorporating our framework patterns and conventions." id="uml-ts">
                    <mxCell style="rounded=1;whiteSpace=wrap;html=1;fontSize=11;fillColor=#d5e8d4;strokeColor=#82b366;verticalAlign=top;spacingTop=5;" parent="1" vertex="1">
                        <mxGeometry x="60" y="690" width="120" height="110" as="geometry"/>
                    </mxCell>
                </object>
                <object label="Refactor with&amp;#xa;API Stability &amp; Tests&amp;#xa;&amp;#xa;• Maintain interfaces&amp;#xa;• Preserve contracts&amp;#xa;• Update tests&amp;#xa;• Version compatibility" tooltip="Refactor with API Stability &amp; Tests represents the model&apos;s sophisticated capability to perform complex code refactoring operations while maintaining backward compatibility, API stability, and comprehensive test coverage. This advanced capability demonstrates the model&apos;s understanding of how to evolve codebases without breaking existing functionality or disrupting dependent systems. The refactoring process includes maintaining interface contracts by ensuring that all public APIs remain unchanged during internal implementation modifications, preserving method signatures, parameter types, return types, and behavioral contracts. Contract preservation involves maintaining service-level agreements, data contracts, and integration points with external systems, ensuring that refactored code continues to meet all existing obligations and expectations. Test updates are automatically generated to reflect refactoring changes, including updating unit tests, integration tests, and end-to-end tests to maintain comprehensive coverage while adapting to new internal structures. Version compatibility is maintained through proper semantic versioning, deprecation strategies, and migration paths for breaking changes when absolutely necessary. The model demonstrates advanced understanding of refactoring patterns, code smell detection, technical debt reduction, and architectural improvement while maintaining the stability and reliability that enterprise systems require." id="refactor">
                    <mxCell style="rounded=1;whiteSpace=wrap;html=1;fontSize=11;fillColor=#d5e8d4;strokeColor=#82b366;verticalAlign=top;spacingTop=5;" parent="1" vertex="1">
                        <mxGeometry x="200" y="690" width="120" height="110" as="geometry"/>
                    </mxCell>
                </object>
                <object label="Cross-language OOP&amp;#xa;Java/C++/Delphi → TS&amp;#xa;&amp;#xa;• Design patterns&amp;#xa;• Architecture principles&amp;#xa;• Inheritance/composition&amp;#xa;• Framework adaptation" tooltip="Cross-language OOP represents the model&apos;s sophisticated ability to leverage Object-Oriented Programming patterns, principles, and architectural concepts from multiple programming languages (Java, C++, Delphi) and apply them effectively in TypeScript implementations while maintaining framework compliance. This capability demonstrates the model&apos;s deep understanding of how to translate proven OOP concepts across language boundaries while preserving their architectural benefits and design intent. Design pattern translation includes correctly mapping creational patterns (Factory, Builder, Singleton), structural patterns (Adapter, Decorator, Facade), and behavioral patterns (Observer, Strategy, Command) from their original language implementations to TypeScript equivalents. Architecture principles are applied from enterprise Java patterns (Spring framework concepts, dependency injection, aspect-oriented programming), C++ design patterns (RAII, smart pointers, template metaprogramming concepts), and Delphi component patterns (VCL/FMX component architecture, event-driven programming) to TypeScript implementations. Inheritance and composition relationships are properly translated, ensuring that &apos;is-a&apos; relationships use inheritance appropriately and &apos;has-a&apos; relationships use composition effectively, while adapting to TypeScript&apos;s specific type system and framework patterns. Framework adaptation ensures that cross-language OOP concepts are seamlessly integrated with our DFrame/ONCE framework patterns, maintaining consistency with our architectural approach while benefiting from proven OOP principles from other ecosystems." id="oop-awareness">
                    <mxCell style="rounded=1;whiteSpace=wrap;html=1;fontSize=11;fillColor=#d5e8d4;strokeColor=#82b366;verticalAlign=top;spacingTop=5;" parent="1" vertex="1">
                        <mxGeometry x="340" y="690" width="120" height="110" as="geometry"/>
                    </mxCell>
                </object>
                <object label="Framework-compliant&amp;#xa;Code Generation&amp;#xa;&amp;#xa;• DFrame patterns&amp;#xa;• ONCE services&amp;#xa;• PDCA structure&amp;#xa;• Convention compliance" tooltip="Framework-compliant Code Generation represents the model&apos;s ability to produce TypeScript code that strictly adheres to our DFrame/ONCE framework patterns, PDCA methodology structure, and established coding conventions. This capability ensures that all generated code is immediately recognizable as framework-compliant and follows our established architectural patterns and conventions. DFrame patterns are consistently applied, including component-based architecture with strict separation of concerns, dependency injection mechanisms, standardized lifecycle management, component registration and discovery, property binding systems, and event handling mechanisms. ONCE services are properly implemented with single-responsibility principle enforcement, immutable data patterns, consistent API design across all modules, service registration and discovery, service-to-service communication patterns, and proper service lifecycle management. PDCA structure is embedded throughout the code, with explicit Plan phases (requirement analysis, architectural planning, design pattern selection), Do implementation phases (systematic code generation following planned architecture), Check validation phases (comprehensive testing and quality validation), and Act improvement phases (feedback loops and continuous improvement mechanisms). Convention compliance ensures consistent naming conventions, code structure patterns, error handling approaches, documentation standards, and integration with our existing framework components. The model demonstrates sophisticated understanding of how to generate code that not only functions correctly but also maintains the architectural integrity and consistency that defines our framework ecosystem." id="framework-compliant">
                    <mxCell style="rounded=1;whiteSpace=wrap;html=1;fontSize=11;fillColor=#d5e8d4;strokeColor=#82b366;verticalAlign=top;spacingTop=5;" parent="1" vertex="1">
                        <mxGeometry x="480" y="690" width="120" height="110" as="geometry"/>
                    </mxCell>
                </object>
                <object label="Success Metrics" tooltip="Success Metrics define the quantitative and qualitative measures that validate the effectiveness of our framework-integrated LLM training approach. These metrics ensure that our fine-tuned models not only generate syntactically correct TypeScript code but also consistently apply our OOP-first philosophy, DFrame/ONCE framework patterns, PDCA methodology, and cross-language architectural awareness. The metrics are designed to measure both the technical accuracy of code generation and the adherence to our specific framework constraints and conventions. They serve as validation gates throughout the training process and provide objective evidence that our models have successfully internalized the complex patterns required for stereotyped code generation. These metrics are critical for demonstrating ROI, ensuring quality consistency, and validating that the 30% framework data threshold has been effectively applied to produce models that truly understand and apply our unique development methodology." id="metrics-title">
                    <mxCell style="rounded=1;whiteSpace=wrap;html=1;fontSize=16;fontStyle=1;fillColor=#f8cecc;strokeColor=#b85450;verticalAlign=top;spacingTop=10;" parent="1" vertex="1">
                        <mxGeometry x="680" y="380" width="680" height="40" as="geometry"/>
                    </mxCell>
                </object>
                <object label="Pattern Recognition&amp;#xa;&gt;95% accuracy&amp;#xa;&amp;#xa;• OOP pattern detection&amp;#xa;• Framework pattern matching&amp;#xa;• Cross-language mapping" tooltip="Pattern Recognition measures the model&#39;s ability to identify and correctly apply OOP design patterns, framework-specific patterns, and cross-language architectural concepts. This metric evaluates how well the model recognizes inheritance hierarchies, composition relationships, design patterns (Factory, Strategy, Observer, etc.), and framework-specific patterns like DFrame component lifecycle, ONCE service patterns, and PDCA methodology structures. The model must demonstrate &gt;95% accuracy in detecting when to apply specific patterns based on context, understanding the relationships between different architectural elements, and correctly mapping OOP concepts from Delphi (VCL/FMX), Java (Spring/Enterprise), and Qt (C++/QML) to TypeScript implementations. This includes recognizing when to use interfaces vs abstract classes, proper dependency injection patterns, lifecycle management, and framework-specific conventions. The metric validates that the model has internalized the complex pattern recognition required for stereotyped code generation." id="pattern-recognition">
                    <mxCell style="rounded=1;whiteSpace=wrap;html=1;fontSize=11;fillColor=#f8cecc;strokeColor=#b85450;verticalAlign=top;spacingTop=5;" parent="1" vertex="1">
                        <mxGeometry x="700" y="440" width="120" height="110" as="geometry"/>
                    </mxCell>
                </object>
                <object label="Code Generation&amp;#xa;&gt;90% compliance&amp;#xa;&amp;#xa;• Framework conventions&amp;#xa;• Naming standards&amp;#xa;• Structure patterns" tooltip="Code Generation compliance measures the percentage of generated TypeScript code that strictly adheres to our framework conventions, naming standards, and structural patterns. This metric evaluates the model&#39;s ability to consistently produce code that follows DFrame component patterns, ONCE service structures, PDCA methodology integration, and TypeScript best practices. The &gt;90% compliance target ensures that generated code includes proper class organization, method ordering, documentation patterns, error handling structures, and framework-specific dependencies. This includes correct use of decorators, proper interface definitions, consistent naming conventions (camelCase, PascalCase, kebab-case), file organization patterns, import/export structures, and framework-specific annotations. The metric validates that the model has learned to generate stereotyped code that developers can immediately recognize as framework-compliant, reducing the need for manual refactoring and ensuring consistency across all generated code." id="code-generation">
                    <mxCell style="rounded=1;whiteSpace=wrap;html=1;fontSize=11;fillColor=#f8cecc;strokeColor=#b85450;verticalAlign=top;spacingTop=5;" parent="1" vertex="1">
                        <mxGeometry x="840" y="440" width="120" height="110" as="geometry"/>
                    </mxCell>
                </object>
                <object label="OOP Transfer&amp;#xa;&gt;85% accuracy&amp;#xa;&amp;#xa;• Delphi → TypeScript&amp;#xa;• Java → TypeScript&amp;#xa;• Qt → TypeScript" tooltip="OOP Transfer accuracy measures the model&#39;s ability to correctly translate Object-Oriented Programming patterns, concepts, and architectural principles from source languages (Delphi, Java, Qt) into TypeScript implementations while maintaining the original design intent and architectural benefits. This metric evaluates how well the model understands and applies inheritance patterns from Delphi&#39;s VCL/FMX frameworks, enterprise patterns from Java&#39;s Spring ecosystem, and component patterns from Qt&#39;s C++/QML architecture to TypeScript. The &gt;85% accuracy target ensures proper translation of concepts like component lifecycle management, event handling systems, data binding patterns, service layer architectures, dependency injection frameworks, and design pattern implementations. This includes correctly mapping Delphi&#39;s component-based architecture to TypeScript classes, Java&#39;s enterprise service patterns to TypeScript services, and Qt&#39;s signal-slot mechanisms to TypeScript event systems. The metric validates that the model can leverage cross-language OOP expertise to produce TypeScript code that benefits from proven architectural patterns while maintaining framework compliance." id="oop-transfer">
                    <mxCell style="rounded=1;whiteSpace=wrap;html=1;fontSize=11;fillColor=#f8cecc;strokeColor=#b85450;verticalAlign=top;spacingTop=5;" parent="1" vertex="1">
                        <mxGeometry x="980" y="440" width="120" height="110" as="geometry"/>
                    </mxCell>
                </object>
                <object label="Documentation&amp;#xa;&gt;90% completeness&amp;#xa;&amp;#xa;• API documentation&amp;#xa;• Code comments&amp;#xa;• Framework guidelines" tooltip="Documentation completeness measures the percentage of generated code that includes comprehensive, framework-compliant documentation and comments. This metric evaluates the model&#39;s ability to automatically generate proper API documentation, inline code comments, and framework-specific guidelines that help developers understand the code&#39;s purpose, usage patterns, and integration points. The &gt;90% completeness target ensures that generated code includes JSDoc comments for all public methods and classes, inline comments explaining complex logic and framework-specific patterns, usage examples for DFrame components and ONCE services, PDCA methodology annotations, and architectural decision records. This includes documenting component lifecycle methods, service dependencies, event handling patterns, error handling strategies, and framework-specific conventions. The metric validates that the model understands the importance of self-documenting code and can generate documentation that follows our framework&#39;s documentation standards, making the generated code immediately understandable and maintainable by other developers." id="documentation">
                    <mxCell style="rounded=1;whiteSpace=wrap;html=1;fontSize=11;fillColor=#f8cecc;strokeColor=#b85450;verticalAlign=top;spacingTop=5;" parent="1" vertex="1">
                        <mxGeometry x="1120" y="440" width="120" height="110" as="geometry"/>
                    </mxCell>
                </object>
                <object label="Implementation Timeline" tooltip="Implementation Timeline represents the comprehensive three-phase roadmap for successfully deploying our framework-integrated LLM training system. This timeline is strategically designed to ensure systematic development, thorough validation, and successful deployment of our OOP-first, framework-compliant TypeScript code generation capabilities. The timeline balances ambitious goals with realistic timelines, ensuring that each phase builds upon the previous one while maintaining quality standards and framework compliance throughout the development process. Phase 1 focuses on data collection and preparation, establishing the critical foundation of framework-specific training data that meets our 30% threshold requirement. Phase 2 concentrates on model training with specialized adapters, implementing the core LoRA/QLoRA fine-tuning processes that will enable our models to generate stereotyped TypeScript code. Phase 3 focuses on integration and deployment, bringing the trained models into production workflows and validating their performance in real-world scenarios. This timeline ensures that our framework-integrated approach is not just theoretically sound but practically implementable, with clear milestones, deliverables, and success criteria for each phase." id="timeline-title">
                    <mxCell style="rounded=1;whiteSpace=wrap;html=1;fontSize=16;fontStyle=1;fillColor=#e1d5e7;strokeColor=#9673a6;verticalAlign=top;spacingTop=10;" parent="1" vertex="1">
                        <mxGeometry x="680" y="630" width="680" height="40" as="geometry"/>
                    </mxCell>
                </object>
                <object label="Phase 1: Data Collection&amp;#xa;(2-3 months)&amp;#xa;&amp;#xa;• Framework code curation&amp;#xa;• Public data transformation&amp;#xa;• PDCA examples creation&amp;#xa;• 30% threshold validation" tooltip="Phase 1: Data Collection represents the critical foundation phase of our framework-integrated LLM training initiative, spanning 2-3 months and focusing on establishing the high-quality, framework-specific training data required for successful model fine-tuning. This phase is absolutely essential because the quality and consistency of our training data directly determines the effectiveness of our final models. Framework code curation involves systematically collecting and organizing all internal DFrame implementations, ONCE services, PDCA methodology examples, and coding standards from our existing codebase. This includes identifying the most representative examples of our architectural patterns, extracting comprehensive code samples that demonstrate proper framework usage, and creating a curated dataset that showcases the full range of our development methodology. Public data transformation involves taking high-quality public datasets (The Stack v2, GitHub TypeScript repositories) and systematically rewriting them to use our framework patterns instead of generic patterns. This transformation process includes replacing standard patterns with DFrame components, converting generic API calls to ONCE service patterns, and embedding PDCA methodology cycles into the code structure. PDCA examples creation involves developing comprehensive examples that demonstrate how our Plan-Do-Check-Act methodology is embedded in code structure, including planning phases, implementation tracking, validation checkpoints, and continuous improvement loops. The 30% threshold validation ensures that we meet the critical research requirement that 30% or more of our training data follows specific framework patterns for reliable model behavior, which translates to 42B tokens (60 GB) of framework-aligned data for our 7B model." id="phase1">
                    <mxCell style="rounded=1;whiteSpace=wrap;html=1;fontSize=11;fillColor=#e1d5e7;strokeColor=#9673a6;verticalAlign=top;spacingTop=5;" parent="1" vertex="1">
                        <mxGeometry x="700" y="690" width="180" height="100" as="geometry"/>
                    </mxCell>
                </object>
                <object label="Phase 2: Model Training&amp;#xa;(1-2 months)&amp;#xa;&amp;#xa;• QLoRA fine-tuning&amp;#xa;• LoRA architecture training&amp;#xa;• Adapter specialization&amp;#xa;• Quality validation" tooltip="Phase 2: Model Training represents the core technical implementation phase of our framework-integrated LLM training, spanning 1-2 months and focusing on fine-tuning our selected models with specialized adapters to produce framework-compliant TypeScript code. This phase transforms our carefully prepared training data into functional models capable of generating stereotyped code. QLoRA fine-tuning involves implementing quantized low-rank adaptation for our StarCoder2-7B model, enabling efficient training on consumer hardware while maintaining model performance. This includes configuring the appropriate rank, alpha, and dropout parameters, selecting the optimal target modules for adaptation, and implementing the training loop with proper gradient accumulation and learning rate scheduling. LoRA architecture training involves implementing low-rank adaptation for our Code Llama-13B model, focusing on deeper architectural reasoning capabilities while maintaining computational efficiency. This includes configuring the adapter parameters for the larger model, implementing distributed training strategies if needed, and ensuring proper convergence of the architectural reasoning capabilities. Adapter specialization involves training our four specialized adapters (OOP-Core, DFrame/ONCE, PDCA, and TS-Methodology) to enforce specific framework patterns and conventions. Each adapter is trained on its specific aspect of our framework ecosystem, ensuring that the final model can generate code that consistently follows our architectural principles. Quality validation involves comprehensive testing of the trained models against our success metrics, including pattern recognition accuracy, code generation compliance, OOP transfer accuracy, and documentation completeness. This phase ensures that our models not only learn the patterns but can reliably apply them in production scenarios." id="phase2">
                    <mxCell style="rounded=1;whiteSpace=wrap;html=1;fontSize=11;fillColor=#e1d5e7;strokeColor=#9673a6;verticalAlign=top;spacingTop=5;" parent="1" vertex="1">
                        <mxGeometry x="900" y="690" width="180" height="100" as="geometry"/>
                    </mxCell>
                </object>
                <object label="Phase 3: Integration&amp;#xa;(1 month)&amp;#xa;&amp;#xa;• Workflow integration&amp;#xa;• Pattern validation&amp;#xa;• Performance optimization&amp;#xa;• Deployment" tooltip="Phase 3: Integration represents the final deployment phase of our framework-integrated LLM training initiative, spanning 1 month and focusing on bringing our trained models into production workflows while ensuring optimal performance and reliability. This phase transforms our research and development efforts into practical tools that developers can use in their daily work. Workflow integration involves seamlessly incorporating our trained models into existing development environments, particularly Cursor/VSCode, ensuring that developers can access framework-compliant code generation capabilities without disrupting their current workflows. This includes developing appropriate APIs, creating user-friendly interfaces, and implementing proper error handling and feedback mechanisms. Pattern validation involves comprehensive testing of the integrated models in real-world scenarios, ensuring that they consistently generate framework-compliant code across different types of projects, complexity levels, and use cases. This includes testing with actual development teams, gathering feedback on code quality and consistency, and validating that the generated code meets our framework standards in practice. Performance optimization involves fine-tuning the models for production use, including optimizing inference speed, reducing memory usage, and ensuring reliable performance under various load conditions. This includes implementing caching mechanisms, optimizing model loading times, and ensuring that the models can handle the demands of real-world development scenarios. Deployment involves rolling out the integrated system to development teams, providing training and documentation, and establishing monitoring and feedback mechanisms to ensure continued success. This phase ensures that our framework-integrated LLM training delivers real value to developers while maintaining the high standards of code quality and architectural consistency that define our development methodology." id="phase3">
                    <mxCell style="rounded=1;whiteSpace=wrap;html=1;fontSize=11;fillColor=#e1d5e7;strokeColor=#9673a6;verticalAlign=top;spacingTop=5;" parent="1" vertex="1">
                        <mxGeometry x="1100" y="690" width="180" height="100" as="geometry"/>
                    </mxCell>
                </object>
                <mxCell id="conn1" style="edgeStyle=orthogonalEdgeStyle;rounded=0;orthogonalLoop=1;jettySize=auto;html=1;exitX=0.5;exitY=1;exitDx=0;exitDy=0;entryX=0.5;entryY=0;entryDx=0;entryDy=0;strokeWidth=2;strokeColor=#666666;" parent="1" source="starcoder2" target="adapter-layer-title" edge="1">
                    <mxGeometry relative="1" as="geometry"/>
                </mxCell>
                <mxCell id="conn2" style="edgeStyle=orthogonalEdgeStyle;rounded=0;orthogonalLoop=1;jettySize=auto;html=1;exitX=0.5;exitY=1;exitDx=0;exitDy=0;entryX=0.5;entryY=0;entryDx=0;entryDy=0;strokeWidth=2;strokeColor=#666666;" parent="1" source="codellama" target="adapter-layer-title" edge="1">
                    <mxGeometry relative="1" as="geometry"/>
                </mxCell>
                <mxCell id="conn3" style="edgeStyle=orthogonalEdgeStyle;rounded=0;orthogonalLoop=1;jettySize=auto;html=1;exitX=0.5;exitY=1;exitDx=0;exitDy=0;entryX=0.5;entryY=0;entryDx=0;entryDy=0;strokeWidth=3;strokeColor=#FF6B35;" parent="1" source="oop-core" target="output-layer-title" edge="1">
                    <mxGeometry relative="1" as="geometry">
                        <mxPoint x="120" y="550" as="sourcePoint"/>
                    </mxGeometry>
                </mxCell>
                <mxCell id="conn4" style="edgeStyle=orthogonalEdgeStyle;rounded=0;orthogonalLoop=1;jettySize=auto;html=1;exitX=0.5;exitY=1;exitDx=0;exitDy=0;entryX=0.5;entryY=0;entryDx=0;entryDy=0;strokeWidth=3;strokeColor=#FF6B35;" parent="1" source="dframe-once" target="output-layer-title" edge="1">
                    <mxGeometry relative="1" as="geometry">
                        <mxPoint x="260" y="550" as="sourcePoint"/>
                    </mxGeometry>
                </mxCell>
                <mxCell id="conn5" style="edgeStyle=orthogonalEdgeStyle;rounded=0;orthogonalLoop=1;jettySize=auto;html=1;exitX=0.5;exitY=1;exitDx=0;exitDy=0;entryX=0.5;entryY=0;entryDx=0;entryDy=0;strokeWidth=3;strokeColor=#FF6B35;" parent="1" source="pdca" target="output-layer-title" edge="1">
                    <mxGeometry relative="1" as="geometry">
                        <mxPoint x="400" y="550" as="sourcePoint"/>
                    </mxGeometry>
                </mxCell>
                <mxCell id="conn6" style="edgeStyle=orthogonalEdgeStyle;rounded=0;orthogonalLoop=1;jettySize=auto;html=1;exitX=0.5;exitY=1;exitDx=0;exitDy=0;entryX=0.5;entryY=0;entryDx=0;entryDy=0;strokeWidth=3;strokeColor=#FF6B35;" parent="1" source="ts-methodology" target="output-layer-title" edge="1">
                    <mxGeometry relative="1" as="geometry">
                        <mxPoint x="540" y="550" as="sourcePoint"/>
                    </mxGeometry>
                </mxCell>
                <mxCell id="data-conn1" style="edgeStyle=orthogonalEdgeStyle;rounded=0;orthogonalLoop=1;jettySize=auto;html=1;exitX=0.5;exitY=1;exitDx=0;exitDy=0;strokeWidth=2;strokeColor=#B85450;dashed=1;entryX=0.81;entryY=-0.069;entryDx=0;entryDy=0;entryPerimeter=0;" parent="1" source="framework-data" target="adapter-layer-title" edge="1">
                    <mxGeometry relative="1" as="geometry">
                        <mxPoint x="320" y="380" as="targetPoint"/>
                        <Array as="points">
                            <mxPoint x="800" y="330"/>
                            <mxPoint x="526" y="330"/>
                        </Array>
                    </mxGeometry>
                </mxCell>
                <mxCell id="data-conn2" style="edgeStyle=orthogonalEdgeStyle;rounded=0;orthogonalLoop=1;jettySize=auto;html=1;exitX=0.5;exitY=1;exitDx=0;exitDy=0;strokeWidth=2;strokeColor=#9673a6;dashed=1;entryX=0.883;entryY=-0.049;entryDx=0;entryDy=0;entryPerimeter=0;" parent="1" source="public-data" target="adapter-layer-title" edge="1">
                    <mxGeometry relative="1" as="geometry">
                        <mxPoint x="350" y="380" as="targetPoint"/>
                        <Array as="points">
                            <mxPoint x="1020" y="340"/>
                            <mxPoint x="570" y="340"/>
                        </Array>
                    </mxGeometry>
                </mxCell>
                <mxCell id="data-conn3" style="edgeStyle=orthogonalEdgeStyle;rounded=0;orthogonalLoop=1;jettySize=auto;html=1;exitX=0.5;exitY=1;exitDx=0;exitDy=0;strokeWidth=2;strokeColor=#82b366;dashed=1;entryX=0.946;entryY=-0.069;entryDx=0;entryDy=0;entryPerimeter=0;" edge="1" parent="1" source="quality-assurance" target="adapter-layer-title">
                    <mxGeometry relative="1" as="geometry">
                        <mxPoint x="370" y="380" as="targetPoint"/>
                        <Array as="points">
                            <mxPoint x="1240" y="350"/>
                            <mxPoint x="608" y="350"/>
                        </Array>
                    </mxGeometry>
                </mxCell>
                <object label="&lt;div&gt;&lt;br&gt;&lt;/div&gt;Legend:&lt;br&gt;&lt;br&gt;Solid lines: Model flow&lt;br&gt;Dashed lines: Data flow&lt;br&gt;&lt;br&gt;Green: Models &amp;amp; Output&lt;br&gt;Yellow: Adapters&lt;br&gt;Blue: Data &amp;amp; Timeline&lt;br&gt;Red: Metrics&lt;br&gt;Purple: Framework" tooltip="Color coding and connection types used in the diagram." id="legend">
                    <mxCell style="rounded=1;whiteSpace=wrap;html=1;fontSize=10;fillColor=#f5f5f5;strokeColor=#666666;align=center;verticalAlign=top;" parent="1" vertex="1">
                        <mxGeometry x="40" y="830" width="170" height="170" as="geometry"/>
                    </mxCell>
                </object>
                <object label="&lt;div&gt;&lt;br&gt;&lt;/div&gt;&lt;div style=&quot;&quot;&gt;&lt;span style=&quot;background-color: transparent;&quot;&gt;Data Flow Legend:&lt;/span&gt;&lt;/div&gt;&lt;br&gt;🔴 Framework Data Flow:&lt;br&gt;42B tokens (60 GB) of internal&lt;br&gt;framework data flows to adapters&lt;br&gt;for pattern training and&lt;br&gt;oversampling.&lt;br&gt;&lt;br&gt;🟣 Transformed Public Data Flow:&lt;br&gt;98B tokens (140 GB) of rewritten&lt;br&gt;public datasets provide scale&lt;br&gt;and diversity while maintaining&lt;br&gt;framework consistency.&lt;br&gt;&lt;br&gt;🟢 Quality Assurance Flow:&lt;br&gt;Validation and quality control&lt;br&gt;data ensures only highest&lt;br&gt;quality, framework-compliant&lt;br&gt;data reaches adapter training." tooltip="Detailed explanation of the three data flow connections from Training Data Strategy to Stackable Adapter Layer." id="data-flow-legend">
                    <mxCell style="rounded=1;whiteSpace=wrap;html=1;fontSize=10;fillColor=#f0f8ff;strokeColor=#4682b4;align=center;verticalAlign=top;" vertex="1" parent="1">
                        <mxGeometry x="445" y="830" width="210" height="270" as="geometry"/>
                    </mxCell>
                </object>
                <object label="&lt;div&gt;&lt;br&gt;&lt;/div&gt;&lt;div style=&quot;&quot;&gt;&lt;span style=&quot;background-color: transparent;&quot;&gt;Model Flow Legend:&lt;/span&gt;&lt;/div&gt;&lt;br&gt;⚫ StarCoder2-7B → Adapters:&lt;br&gt;Primary IDE model connects to&lt;br&gt;adapter layer for comprehensive&lt;br&gt;framework support in development&lt;br&gt;environments (Cursor/VSCode).&lt;br&gt;&lt;br&gt;⚫ Code Llama-13B → Adapters:&lt;br&gt;Secondary architecture model&lt;br&gt;connects to adapter layer for&lt;br&gt;deep reasoning and complex&lt;br&gt;refactoring tasks.&lt;br&gt;&lt;br&gt;🟠 Adapters → Stereotyped Output:&lt;br&gt;All four adapters (OOP-Core,&lt;br&gt;DFrame/ONCE, PDCA, TS-Methodology)&lt;br&gt;combine to produce unified&lt;br&gt;framework-compliant TypeScript code." tooltip="Explanation of the solid line connections showing how models use adapters to generate framework-compliant output." id="model-flow-legend">
                    <mxCell style="rounded=1;whiteSpace=wrap;html=1;fontSize=10;fillColor=#f5f5f5;strokeColor=#666666;align=center;verticalAlign=top;" vertex="1" parent="1">
                        <mxGeometry x="224" y="830" width="200" height="270" as="geometry"/>
                    </mxCell>
                </object>
                <object label="&lt;div&gt;&lt;br&gt;&lt;/div&gt;&lt;div style=&quot;&quot;&gt;&lt;span style=&quot;background-color: transparent;&quot;&gt;Adapter Merge Legend:&lt;/span&gt;&lt;/div&gt;&lt;br&gt;🟠 Orange Thick Lines:&lt;br&gt;Adapter Convergence Flow&lt;br&gt;&lt;br&gt;• OOP-Core → Output&lt;br&gt;• DFrame/ONCE → Output&lt;br&gt;• PDCA → Output&lt;br&gt;• TS-Methodology → Output&lt;br&gt;&lt;br&gt;All four specialized adapters&lt;br&gt;merge their contributions into&lt;br&gt;a single unified output that&lt;br&gt;combines OOP awareness,&lt;br&gt;framework patterns, methodology,&lt;br&gt;and TypeScript conventions." tooltip="Explanation of the orange thick lines showing how all adapters converge to produce unified output." id="adapter-merge-legend">
                    <mxCell style="rounded=1;whiteSpace=wrap;html=1;fontSize=10;fillColor=#fff2e6;strokeColor=#FF6B35;align=center;verticalAlign=top;" vertex="1" parent="1">
                        <mxGeometry x="680" y="830" width="200" height="270" as="geometry"/>
                    </mxCell>
                </object>
            </root>
        </mxGraphModel>
    </diagram>
</mxfile>